<svg width="20" height="20" viewBox="0 0 20 20" fill="none" xmlns="http://www.w3.org/2000/svg">
<path d="M17.4993 15.6237H2.4995C2.33375 15.6237 2.17478 15.5579 2.05757 15.4407C1.94036 15.3235 1.87451 15.1645 1.87451 14.9988C1.87451 14.833 1.94036 14.674 2.05757 14.5568C2.17478 14.4396 2.33375 14.3738 2.4995 14.3738H17.4993C17.665 14.3738 17.824 14.4396 17.9413 14.5568C18.0584 14.674 18.1243 14.833 18.1243 14.9988C18.1243 15.1645 18.0584 15.3235 17.9413 15.4407C17.824 15.5579 17.665 15.6237 17.4993 15.6237Z" fill="black"/>
<path d="M16.2493 17.4983H3.7495C3.58374 17.4983 3.42478 17.4324 3.30757 17.3152C3.19036 17.198 3.12451 17.039 3.12451 16.8733C3.12451 16.7075 3.19036 16.5485 3.30757 16.4313C3.42478 16.3142 3.58374 16.2483 3.7495 16.2483H16.2493C16.4151 16.2483 16.574 16.3142 16.6913 16.4313C16.8085 16.5485 16.8743 16.7075 16.8743 16.8733C16.8743 17.039 16.8085 17.198 16.6913 17.3152C16.574 17.4324 16.4151 17.4983 16.2493 17.4983Z" fill="black"/>
<path d="M1.24946 10.6233H0.624512V12.4981C0.624512 12.8296 0.756195 13.1475 0.990599 13.3819C1.225 13.6163 1.54291 13.748 1.8744 13.748H3.74924V13.1231C3.74852 12.4603 3.48492 11.8249 3.01627 11.3563C2.54763 10.8876 1.91222 10.624 1.24946 10.6233Z" fill="black"/>
<path d="M18.7493 9.37367H19.3743V6.87371H18.7493C17.755 6.87258 16.8019 6.47712 16.0989 5.77413C15.3959 5.07113 15.0005 4.11798 14.9993 3.12377V2.49878H4.99946V3.12377C4.99834 4.11798 4.60288 5.07113 3.89986 5.77413C3.19686 6.47712 2.2437 6.87258 1.2495 6.87371H0.624512V9.37367H1.2495C2.2437 9.37483 3.19686 9.77029 3.89986 10.4733C4.60288 11.1763 4.99834 12.1294 4.99946 13.1236V13.7486H14.9993V13.1236C15.0005 12.1294 15.3959 11.1763 16.0989 10.4733C16.8019 9.77029 17.755 9.37483 18.7493 9.37367ZM9.99938 11.8737C9.25771 11.8737 8.53267 11.6537 7.916 11.2417C7.29934 10.8296 6.81871 10.244 6.53492 9.55875C6.25109 8.87354 6.1768 8.11958 6.3215 7.39213C6.46621 6.66471 6.82334 5.99654 7.34779 5.47208C7.87221 4.94767 8.54038 4.5905 9.2678 4.44583C9.99525 4.30108 10.7492 4.37538 11.4345 4.65921C12.1196 4.94304 12.7053 5.42367 13.1173 6.04033C13.5294 6.657 13.7493 7.38204 13.7493 8.12371C13.7482 9.11792 13.3528 10.071 12.6498 10.774C11.9468 11.477 10.9936 11.8725 9.99938 11.8737Z" fill="black"/>
<path d="M9.99962 10.6225C11.3801 10.6225 12.4992 9.50342 12.4992 8.12292C12.4992 6.74242 11.3801 5.62329 9.99962 5.62329C8.61912 5.62329 7.5 6.74242 7.5 8.12292C7.5 9.50342 8.61912 10.6225 9.99962 10.6225Z" fill="black"/>
<path d="M16.2495 13.1231V13.748H18.1243C18.4558 13.748 18.7738 13.6163 19.0081 13.3819C19.2426 13.1475 19.3743 12.8296 19.3743 12.4981V10.6233H18.7493C18.0866 10.624 17.4511 10.8876 16.9825 11.3563C16.5138 11.8249 16.2503 12.4603 16.2495 13.1231Z" fill="black"/>
<path d="M18.7493 5.6235H19.3743V3.74867C19.3743 3.41718 19.2426 3.09926 19.0081 2.86486C18.7738 2.63046 18.4558 2.49878 18.1243 2.49878H16.2495V3.12373C16.2503 3.78649 16.5138 4.42188 16.9825 4.89054C17.4511 5.35921 18.0866 5.62275 18.7493 5.6235Z" fill="black"/>
<path d="M3.74924 3.12373V2.49878H1.8744C1.54291 2.49878 1.225 2.63046 0.990599 2.86486C0.756195 3.09926 0.624512 3.41718 0.624512 3.74867V5.6235H1.24946C1.91222 5.62275 2.54763 5.35921 3.01627 4.89054C3.48492 4.42188 3.74852 3.78649 3.74924 3.12373Z" fill="black"/>
</svg>
