<svg width="22" height="22" viewBox="0 0 22 22" fill="none" xmlns="http://www.w3.org/2000/svg">
<path d="M13.97 1.8335H10.4003C8.78312 1.83349 7.50216 1.83347 6.49966 1.9688C5.46793 2.10807 4.63285 2.4015 3.97429 3.06271C3.31574 3.72391 3.02347 4.56234 2.88476 5.59822C2.74997 6.60475 2.74999 7.89085 2.75 9.51452V14.8657C2.75 16.2481 3.59329 17.4328 4.79157 17.9294C4.7299 17.0958 4.72995 15.9261 4.73 14.9528V10.448V10.3607C4.72994 9.1858 4.72987 8.17357 4.83842 7.36293C4.95476 6.49418 5.21711 5.66142 5.88986 4.98597C6.56261 4.3105 7.39204 4.04711 8.25732 3.93031C9.06471 3.82132 10.073 3.82138 11.2431 3.82144L11.33 3.82145H13.97L14.0569 3.82144C15.227 3.82138 16.2331 3.82132 17.0405 3.93031C16.5575 2.7023 15.3648 1.8335 13.97 1.8335Z" fill="white"/>
<path d="M6.05029 10.4477C6.05029 7.94867 6.05029 6.69917 6.82353 5.92283C7.59676 5.14648 8.84128 5.14648 11.3303 5.14648H13.9703C16.4593 5.14648 17.7038 5.14648 18.4771 5.92283C19.2503 6.69917 19.2503 7.94868 19.2503 10.4477V14.8654C19.2503 17.3644 19.2503 18.6139 18.4771 19.3902C17.7038 20.1666 16.4593 20.1666 13.9703 20.1666H11.3303C8.84128 20.1666 7.59676 20.1666 6.82353 19.3902C6.05029 18.6139 6.05029 17.3644 6.05029 14.8654V10.4477Z" fill="white"/>
</svg>
