<svg width="150" height="150" viewBox="0 0 150 150" fill="none" xmlns="http://www.w3.org/2000/svg">
<path d="M74.9997 1.5C34.4088 1.5 1.5 34.4088 1.5 74.9997C1.5 115.591 34.4088 148.5 74.9997 148.5C115.591 148.5 148.5 115.591 148.5 74.9997C148.5 34.4088 115.591 1.5 74.9997 1.5ZM108.923 86.3075H74.9997C73.5003 86.3075 72.0625 85.7116 71.0019 84.6519C69.9419 83.5916 69.3459 82.1531 69.3459 80.6538V29.7694C69.3459 28.2697 69.9419 26.8319 71.0019 25.7713C72.0625 24.7113 73.5003 24.1153 74.9997 24.1153C76.4994 24.1153 77.9375 24.7113 78.9978 25.7713C80.0578 26.8319 80.6538 28.2697 80.6538 29.7694V74.9997H108.923C110.422 74.9997 111.86 75.5956 112.921 76.6556C113.981 77.7163 114.577 79.1544 114.577 80.6538C114.577 82.1531 113.981 83.5916 112.921 84.6519C111.86 85.7116 110.422 86.3075 108.923 86.3075Z" fill="#FBBF24"/>
</svg>
