<svg width="95" height="93" viewBox="0 0 95 93" fill="none" xmlns="http://www.w3.org/2000/svg">
<path fill-rule="evenodd" clip-rule="evenodd" d="M54.2908 0.409792C59.7877 -0.942853 65.7344 1.06648 68.7619 6.23952C69.5396 7.56827 70.3917 9.11744 71.2944 10.9008C64.9639 10.4827 55.5746 10.0871 42.7075 10.0871C35.4506 10.0871 29.2998 10.2129 24.18 10.3977C33.8079 6.38065 44.2863 2.87169 54.2908 0.409792ZM13.6613 91.5221C19.8619 91.951 29.385 92.3788 42.7083 92.3788C56.0315 92.3788 65.5548 91.951 71.7554 91.5221C78.5854 91.0496 83.9731 85.8619 84.5337 78.9763C84.6408 77.6608 84.7465 76.1967 84.8454 74.5785C82.911 74.6346 80.6769 74.6704 78.125 74.6704C74.6369 74.6704 71.7425 74.6035 69.3962 74.5094C61.8146 74.2054 55.6933 68.4002 55.3487 60.6206C55.2644 58.7188 55.2083 56.4656 55.2083 53.8371C55.2083 51.2085 55.2644 48.9554 55.3487 47.0535C55.6933 39.274 61.8146 33.4688 69.3962 33.1648C71.7425 33.0706 74.6369 33.0038 78.125 33.0038C80.6769 33.0038 82.911 33.0396 84.8454 33.0956C84.7465 31.4775 84.6408 30.0133 84.5337 28.6979C83.9731 21.8123 78.5854 16.6246 71.7554 16.1521C65.5548 15.7232 56.0317 15.2954 42.7083 15.2954C29.385 15.2954 19.8619 15.7232 13.6613 16.1521C6.83125 16.6246 1.44363 21.8123 0.883 28.6979C0.428813 34.2765 0 42.5356 0 53.8371C0 65.1385 0.428813 73.3977 0.883 78.9763C1.44363 85.8619 6.83125 91.0496 13.6613 91.5221ZM61.5925 60.344C61.7892 64.78 65.2098 68.0867 69.6467 68.2646C71.9058 68.355 74.7167 68.4204 78.125 68.4204C81.5333 68.4204 84.3442 68.355 86.6033 68.2646C91.0402 68.0867 94.4608 64.78 94.6575 60.344C94.7375 58.5377 94.7917 56.3769 94.7917 53.8371C94.7917 51.2973 94.7375 49.1365 94.6575 47.3302C94.4608 42.8942 91.0402 39.5875 86.6033 39.4098C84.3442 39.3192 81.5333 39.2538 78.125 39.2538C74.7167 39.2538 71.9058 39.3192 69.6467 39.4096C65.2098 39.5875 61.7892 42.8942 61.5925 47.3302C61.5125 49.1365 61.4583 51.2973 61.4583 53.8371C61.4583 56.3769 61.5125 58.5377 61.5925 60.344ZM76.0417 48.6288C77.7675 48.6288 79.1667 50.0279 79.1667 51.7538V55.9204C79.1667 57.6463 77.7675 59.0454 76.0417 59.0454C74.3158 59.0454 72.9167 57.6463 72.9167 55.9204V51.7538C72.9167 50.0279 74.3158 48.6288 76.0417 48.6288Z" fill="#B1B1B1"/>
</svg>
